<svg xmlns="http://www.w3.org/2000/svg" style="width:0; height:0; visibility:hidden;">
    <symbol id="icon_arrow-left" viewBox="0 0 30 30">
      <title>arrow-left</title><rect width="30" height="30"/><polyline points="19.5 24 10.5 15 19.5 6" style="fill:none;stroke:#fff;stroke-miterlimit:10;stroke-width:2px"/>
    </symbol>
    <symbol id="icon_arrow-right" viewBox="0 0 30 30">
      <title>arrow-right</title><rect width="30" height="30"/><polyline points="10.5 6 19.5 15 10.5 24" style="fill:none;stroke:#fff;stroke-miterlimit:10;stroke-width:2px"/>
    </symbol>
    <symbol id="icon_fb-black" viewBox="0 0 28.8 62.4">
      <title>fb-white</title><path d="M839.84,8839.76V8829c1.74,0,3.45-.05,5.15,0,1,0,1.2-.3,1.2-1.21,0-3,0-5.94.18-8.91,0.27-5.34,3.48-9.14,8.83-9.8,4.17-.51,8.42-0.39,12.63-0.49a1.16,1.16,0,0,1,.76.83c0.06,3.13,0,6.26,0,9.4a0.8,0.8,0,0,1-1,.93q-3.05,0-6.11,0c-1.75,0-2.5.74-2.53,2.5,0,1.92,0,3.84,0,5.76,0,0.81.32,1,1.05,1,2.39,0,4.78,0,7.17,0h1.43c-0.08,1-.16,1.89-0.23,2.77-0.18,2.18-.36,4.36-0.53,6.53a1.31,1.31,0,0,1-1.61,1.44c-2-.1-4,0-6-0.05-1.06,0-1.31.33-1.3,1.34,0,9.48,0,19,0,28.43,0,1.54,0,1.55-1.54,1.55h-9.63c-1.64,0-1.64,0-1.64-1.6q0-13.92,0-27.84c0-2.1.08-1.78-1.86-1.8C842.88,8839.75,841.44,8839.76,839.84,8839.76Z" transform="translate(-839.84 -8808.61)" style="fill:#000"/>
    </symbol>
    <symbol id="icon_fb-white" viewBox="0 0 28.8 62.4">
      <title>fb-white</title><path d="M839.84,8839.76V8829c1.74,0,3.45-.05,5.15,0,1,0,1.2-.3,1.2-1.21,0-3,0-5.94.18-8.91,0.27-5.34,3.48-9.14,8.83-9.8,4.17-.51,8.42-0.39,12.63-0.49a1.16,1.16,0,0,1,.76.83c0.06,3.13,0,6.26,0,9.4a0.8,0.8,0,0,1-1,.93q-3.05,0-6.11,0c-1.75,0-2.5.74-2.53,2.5,0,1.92,0,3.84,0,5.76,0,0.81.32,1,1.05,1,2.39,0,4.78,0,7.17,0h1.43c-0.08,1-.16,1.89-0.23,2.77-0.18,2.18-.36,4.36-0.53,6.53a1.31,1.31,0,0,1-1.61,1.44c-2-.1-4,0-6-0.05-1.06,0-1.31.33-1.3,1.34,0,9.48,0,19,0,28.43,0,1.54,0,1.55-1.54,1.55h-9.63c-1.64,0-1.64,0-1.64-1.6q0-13.92,0-27.84c0-2.1.08-1.78-1.86-1.8C842.88,8839.75,841.44,8839.76,839.84,8839.76Z" transform="translate(-839.84 -8808.61)" style="fill:#fff"/>
    </symbol>
    <symbol id="icon_ig-black" viewBox="0 0 55.46 55.46">
      <title>ig-white</title><path d="M1203.61,8871h-31.72a11.88,11.88,0,0,1-11.87-11.87v-31.72a11.88,11.88,0,0,1,11.87-11.87h31.72a11.88,11.88,0,0,1,11.87,11.87v31.72A11.88,11.88,0,0,1,1203.61,8871Zm-31.72-49a5.4,5.4,0,0,0-5.4,5.4v31.72a5.4,5.4,0,0,0,5.4,5.4h31.72a5.4,5.4,0,0,0,5.4-5.4v-31.72a5.4,5.4,0,0,0-5.4-5.4h-31.72Z" transform="translate(-1160.02 -8815.54)" style="fill:#000"/><path d="M1187.75,8858.6a15.32,15.32,0,1,1,15.32-15.32A15.34,15.34,0,0,1,1187.75,8858.6Zm0-24.17a8.85,8.85,0,1,0,8.85,8.85A8.86,8.86,0,0,0,1187.75,8834.43Z" transform="translate(-1160.02 -8815.54)" style="fill:#000"/><circle cx="43.41" cy="12.89" r="2.76" style="fill:#000"/>
    </symbol>
    <symbol id="icon_ig-white" viewBox="0 0 55.46 55.46">
      <title>ig-white</title><path d="M1203.61,8871h-31.72a11.88,11.88,0,0,1-11.87-11.87v-31.72a11.88,11.88,0,0,1,11.87-11.87h31.72a11.88,11.88,0,0,1,11.87,11.87v31.72A11.88,11.88,0,0,1,1203.61,8871Zm-31.72-49a5.4,5.4,0,0,0-5.4,5.4v31.72a5.4,5.4,0,0,0,5.4,5.4h31.72a5.4,5.4,0,0,0,5.4-5.4v-31.72a5.4,5.4,0,0,0-5.4-5.4h-31.72Z" transform="translate(-1160.02 -8815.54)" style="fill:#fff"/><path d="M1187.75,8858.6a15.32,15.32,0,1,1,15.32-15.32A15.34,15.34,0,0,1,1187.75,8858.6Zm0-24.17a8.85,8.85,0,1,0,8.85,8.85A8.86,8.86,0,0,0,1187.75,8834.43Z" transform="translate(-1160.02 -8815.54)" style="fill:#fff"/><circle cx="43.41" cy="12.89" r="2.76" style="fill:#fff"/>
    </symbol>
    <symbol id="icon_logo-black" viewBox="0 0 101.36 39.94">
      <path d="M1002.83,45.42l-3.05,1,0.41-1.27c1.5-4.59-5.2-4.33-6.66.32l-1,3.25,3.06-1L991,62.09l3.29-1.1-0.84,2.67c-1.59,5,5,4.1,6.6-.87l1.22-3.73L998,60.15Zm-16.28,5.46-3.05,1,1.23-3.84c5.53-17.21,26.35-16.57,24-4.75l3.08-1c-0.07.3-.14,0.61-0.24,0.93l-4.07,13.36,3.3-1.11-1.11,3.65c-6.33,20.8-27.49,18.82-24.46,5.33l-3.34,1.12c0.07-.28.15-0.56,0.24-0.84Z" transform="translate(-960.47 -34.74)" style="fill:#000"/><path d="M964.09,52.21v4.62h1.1a2.31,2.31,0,0,0,0-4.62h-1.1Zm0,10.92v1.81h-3.61V48.6h4.71a5.92,5.92,0,0,1,0,11.85h-1.1v2.68Z" transform="translate(-960.47 -34.74)" style="fill:#000"/><path d="M1026.88,52.21v4.62h1.1a2.31,2.31,0,0,0,0-4.62h-1.1Zm0,10.92v1.81h-3.61V48.6H1028a5.92,5.92,0,0,1,0,11.85h-1.1v2.68Z" transform="translate(-960.47 -34.74)" style="fill:#000"/><path d="M1050.89,63.35l-1.54-.94,1.88-3.08,1.54,0.94a9.08,9.08,0,0,0,2,.95,4.19,4.19,0,0,0,1.69.21,2.3,2.3,0,0,0,1.2-.48,1.38,1.38,0,0,0,.51-0.76,1.19,1.19,0,0,0,0-.72,1.17,1.17,0,0,0-.45-0.39,11.29,11.29,0,0,0-1.61-.68c-1.84-.68-3.74-1.37-4.54-3.55a4.55,4.55,0,0,1-.26-2,4.69,4.69,0,0,1,.61-1.93,4.59,4.59,0,0,1,3.43-2.29,7.46,7.46,0,0,1,4.27.79l1.62,0.8-1.6,3.23-1.62-.8a3.84,3.84,0,0,0-2.15-.45,1.1,1.1,0,0,0-.83.53,1,1,0,0,0-.14.43,1,1,0,0,0,.06.44c0.22,0.61,1.32,1,2.39,1.4a13.21,13.21,0,0,1,2.19,1,4.3,4.3,0,0,1,2.15,4.94,5,5,0,0,1-1.77,2.83,5.91,5.91,0,0,1-3.09,1.25,7.7,7.7,0,0,1-3.15-.35,12.63,12.63,0,0,1-2.8-1.31" transform="translate(-960.47 -34.74)" style="fill:#000"/>
    </symbol>
    <symbol id="icon_logo-white" viewBox="0 0 101.36 39.94">
      <path d="M1002.83,45.42l-3.05,1,0.41-1.27c1.5-4.59-5.2-4.33-6.66.32l-1,3.25,3.06-1L991,62.09l3.29-1.1-0.84,2.67c-1.59,5,5,4.1,6.6-.87l1.22-3.73L998,60.15Zm-16.28,5.46-3.05,1,1.23-3.84c5.53-17.21,26.35-16.57,24-4.75l3.08-1c-0.07.3-.14,0.61-0.24,0.93l-4.07,13.36,3.3-1.11-1.11,3.65c-6.33,20.8-27.49,18.82-24.46,5.33l-3.34,1.12c0.07-.28.15-0.56,0.24-0.84Z" transform="translate(-960.47 -34.74)" style="fill:#fff"/><path d="M964.09,52.21v4.62h1.1a2.31,2.31,0,0,0,0-4.62h-1.1Zm0,10.92v1.81h-3.61V48.6h4.71a5.92,5.92,0,0,1,0,11.85h-1.1v2.68Z" transform="translate(-960.47 -34.74)" style="fill:#fff"/><path d="M1026.88,52.21v4.62h1.1a2.31,2.31,0,0,0,0-4.62h-1.1Zm0,10.92v1.81h-3.61V48.6H1028a5.92,5.92,0,0,1,0,11.85h-1.1v2.68Z" transform="translate(-960.47 -34.74)" style="fill:#fff"/><path d="M1050.89,63.35l-1.54-.94,1.88-3.08,1.54,0.94a9.08,9.08,0,0,0,2,.95,4.19,4.19,0,0,0,1.69.21,2.3,2.3,0,0,0,1.2-.48,1.38,1.38,0,0,0,.51-0.76,1.19,1.19,0,0,0,0-.72,1.17,1.17,0,0,0-.45-0.39,11.29,11.29,0,0,0-1.61-.68c-1.84-.68-3.74-1.37-4.54-3.55a4.55,4.55,0,0,1-.26-2,4.69,4.69,0,0,1,.61-1.93,4.59,4.59,0,0,1,3.43-2.29,7.46,7.46,0,0,1,4.27.79l1.62,0.8-1.6,3.23-1.62-.8a3.84,3.84,0,0,0-2.15-.45,1.1,1.1,0,0,0-.83.53,1,1,0,0,0-.14.43,1,1,0,0,0,.06.44c0.22,0.61,1.32,1,2.39,1.4a13.21,13.21,0,0,1,2.19,1,4.3,4.3,0,0,1,2.15,4.94,5,5,0,0,1-1.77,2.83,5.91,5.91,0,0,1-3.09,1.25,7.7,7.7,0,0,1-3.15-.35,12.63,12.63,0,0,1-2.8-1.31" transform="translate(-960.47 -34.74)" style="fill:#fff"/>
    </symbol>
    <symbol id="icon_vk-black" viewBox="0 0 78.98 45.06">
      <title>vk-white</title><path d="M1060.07,8866.64a5.42,5.42,0,0,0-.27-0.51q-2.06-3.7-7.85-9.09l-0.08-.08,0,0,0,0h0q-2.63-2.51-3.33-3.37a3.17,3.17,0,0,1-.58-3.33,31.06,31.06,0,0,1,3.7-5.39q1.69-2.18,2.67-3.49,7.12-9.46,6.17-12.09l-0.24-.41a2.4,2.4,0,0,0-1.27-.68,6.42,6.42,0,0,0-2.63-.1l-11.84.08a1.53,1.53,0,0,0-.82,0l-0.54.12-0.2.1-0.16.12a1.79,1.79,0,0,0-.45.43,2.83,2.83,0,0,0-.41.72,67.22,67.22,0,0,1-4.4,9.25q-1.52,2.55-2.8,4.42a21.47,21.47,0,0,1-2.14,2.76,14.79,14.79,0,0,1-1.56,1.42,1.51,1.51,0,0,1-1.07.45l-0.7-.17a2.7,2.7,0,0,1-.92-1,4.47,4.47,0,0,1-.47-1.6q-0.12-1-.15-1.66c0-.47,0-1.13,0-2s0-1.43,0-1.73q0-1.56.06-3.39t0.1-2.9q0-1.07,0-2.26a9.48,9.48,0,0,0-.15-1.87,6.34,6.34,0,0,0-.43-1.32,2.21,2.21,0,0,0-.84-1,4.72,4.72,0,0,0-1.38-.56,27.57,27.57,0,0,0-5.55-.54q-7.65-.08-9.83,1a5.51,5.51,0,0,0-1.56,1.23q-0.74.91-.21,1a5.05,5.05,0,0,1,3.5,1.77l0.25,0.5a7.74,7.74,0,0,1,.57,1.89,19,19,0,0,1,.37,3,31.71,31.71,0,0,1,0,5.14q-0.2,2.14-.39,3.33a6.67,6.67,0,0,1-.55,1.93,7.81,7.81,0,0,1-.5.9,0.7,0.7,0,0,1-.2.2,3.05,3.05,0,0,1-1.11.21,2.61,2.61,0,0,1-1.4-.58,9.86,9.86,0,0,1-1.71-1.58,21.14,21.14,0,0,1-2-2.82q-1.11-1.81-2.3-4.28l-0.66-1.19q-0.62-1.15-1.69-3.35t-1.89-4.26a2.73,2.73,0,0,0-1-1.32l-0.2-.12a3,3,0,0,0-.66-0.35,4.38,4.38,0,0,0-.95-0.27l-11.27.08a2.87,2.87,0,0,0-2.34.78l-0.17.25a1.34,1.34,0,0,0-.12.66,3.26,3.26,0,0,0,.25,1.11q2.47,5.8,5.37,11.18t5,8.68q2.14,3.29,4.36,6.21t2.94,3.74c0.48,0.55.86,1,1.13,1.23l1,1a24.15,24.15,0,0,0,2.9,2.36,49.41,49.41,0,0,0,4.23,2.72,23,23,0,0,0,5.41,2.18,18.64,18.64,0,0,0,6,.68h4.73a3.27,3.27,0,0,0,2.18-.9l0.16-.2a2.72,2.72,0,0,0,.31-0.76,4.18,4.18,0,0,0,.15-1.13,13.64,13.64,0,0,1,.27-3.19,8.35,8.35,0,0,1,.7-2.14,5.16,5.16,0,0,1,.88-1.21,3.5,3.5,0,0,1,.7-0.6l0.33-.15a2.62,2.62,0,0,1,2.32.64,13.77,13.77,0,0,1,2.51,2.39q1.17,1.42,2.81,3.19a19.62,19.62,0,0,0,2.88,2.63l0.82,0.49a9.94,9.94,0,0,0,2.14.9,4.58,4.58,0,0,0,2.3.21l10.53-.17a4.76,4.76,0,0,0,2.42-.51,2,2,0,0,0,1-1.13,3.19,3.19,0,0,0,0-1.4,5.34,5.34,0,0,0-.29-1.09h0Zm0,0" transform="translate(-981.51 -8825.94)" style="fill:#000"/>
    </symbol>
    <symbol id="icon_vk-white" viewBox="0 0 78.98 45.06">
      <title>vk-white</title><path d="M1060.07,8866.64a5.42,5.42,0,0,0-.27-0.51q-2.06-3.7-7.85-9.09l-0.08-.08,0,0,0,0h0q-2.63-2.51-3.33-3.37a3.17,3.17,0,0,1-.58-3.33,31.06,31.06,0,0,1,3.7-5.39q1.69-2.18,2.67-3.49,7.12-9.46,6.17-12.09l-0.24-.41a2.4,2.4,0,0,0-1.27-.68,6.42,6.42,0,0,0-2.63-.1l-11.84.08a1.53,1.53,0,0,0-.82,0l-0.54.12-0.2.1-0.16.12a1.79,1.79,0,0,0-.45.43,2.83,2.83,0,0,0-.41.72,67.22,67.22,0,0,1-4.4,9.25q-1.52,2.55-2.8,4.42a21.47,21.47,0,0,1-2.14,2.76,14.79,14.79,0,0,1-1.56,1.42,1.51,1.51,0,0,1-1.07.45l-0.7-.17a2.7,2.7,0,0,1-.92-1,4.47,4.47,0,0,1-.47-1.6q-0.12-1-.15-1.66c0-.47,0-1.13,0-2s0-1.43,0-1.73q0-1.56.06-3.39t0.1-2.9q0-1.07,0-2.26a9.48,9.48,0,0,0-.15-1.87,6.34,6.34,0,0,0-.43-1.32,2.21,2.21,0,0,0-.84-1,4.72,4.72,0,0,0-1.38-.56,27.57,27.57,0,0,0-5.55-.54q-7.65-.08-9.83,1a5.51,5.51,0,0,0-1.56,1.23q-0.74.91-.21,1a5.05,5.05,0,0,1,3.5,1.77l0.25,0.5a7.74,7.74,0,0,1,.57,1.89,19,19,0,0,1,.37,3,31.71,31.71,0,0,1,0,5.14q-0.2,2.14-.39,3.33a6.67,6.67,0,0,1-.55,1.93,7.81,7.81,0,0,1-.5.9,0.7,0.7,0,0,1-.2.2,3.05,3.05,0,0,1-1.11.21,2.61,2.61,0,0,1-1.4-.58,9.86,9.86,0,0,1-1.71-1.58,21.14,21.14,0,0,1-2-2.82q-1.11-1.81-2.3-4.28l-0.66-1.19q-0.62-1.15-1.69-3.35t-1.89-4.26a2.73,2.73,0,0,0-1-1.32l-0.2-.12a3,3,0,0,0-.66-0.35,4.38,4.38,0,0,0-.95-0.27l-11.27.08a2.87,2.87,0,0,0-2.34.78l-0.17.25a1.34,1.34,0,0,0-.12.66,3.26,3.26,0,0,0,.25,1.11q2.47,5.8,5.37,11.18t5,8.68q2.14,3.29,4.36,6.21t2.94,3.74c0.48,0.55.86,1,1.13,1.23l1,1a24.15,24.15,0,0,0,2.9,2.36,49.41,49.41,0,0,0,4.23,2.72,23,23,0,0,0,5.41,2.18,18.64,18.64,0,0,0,6,.68h4.73a3.27,3.27,0,0,0,2.18-.9l0.16-.2a2.72,2.72,0,0,0,.31-0.76,4.18,4.18,0,0,0,.15-1.13,13.64,13.64,0,0,1,.27-3.19,8.35,8.35,0,0,1,.7-2.14,5.16,5.16,0,0,1,.88-1.21,3.5,3.5,0,0,1,.7-0.6l0.33-.15a2.62,2.62,0,0,1,2.32.64,13.77,13.77,0,0,1,2.51,2.39q1.17,1.42,2.81,3.19a19.62,19.62,0,0,0,2.88,2.63l0.82,0.49a9.94,9.94,0,0,0,2.14.9,4.58,4.58,0,0,0,2.3.21l10.53-.17a4.76,4.76,0,0,0,2.42-.51,2,2,0,0,0,1-1.13,3.19,3.19,0,0,0,0-1.4,5.34,5.34,0,0,0-.29-1.09h0Zm0,0" transform="translate(-981.51 -8825.94)" style="fill:#fff"/>
    </symbol>
    <symbol id="icon_1" viewBox="0 0 18.4 30.81">
      <path d="M219.86,25.46v5h2.89a2.5,2.5,0,0,0,0-5h-2.89Zm0,11.14V41h-6.14V19.32h9a8.64,8.64,0,0,1,0,17.28h-2.89Z" transform="translate(-213.35 -10.58)" style="fill:#000"/><path d="M219.5,30.45V25.1h3.25a2.8,2.8,0,0,1,1.09.22,2.89,2.89,0,0,1,1.55,1.55,2.8,2.8,0,0,1,0,2.18,2.88,2.88,0,0,1-1.55,1.55,2.81,2.81,0,0,1-1.09.22H219.5V30.45Zm0.72-4.63v4.27h2.53a2.08,2.08,0,0,0,.81-0.16,2.15,2.15,0,0,0,.69-0.47,2.18,2.18,0,0,0,.47-0.69,2.12,2.12,0,0,0,0-1.62A2.18,2.18,0,0,0,223.56,26a2.1,2.1,0,0,0-.81-0.16h-2.53ZM219.5,40.67V36.24h3.25a8.25,8.25,0,0,0,5.85-2.43,8.32,8.32,0,0,0,1.8-2.69,8.27,8.27,0,0,0,0-6.33,8.36,8.36,0,0,0-4.49-4.49,8.24,8.24,0,0,0-3.16-.63h-8.68v21h5.43ZM220.21,37v4.43h-6.86V19h9.4a9,9,0,0,1,0,18h-2.53Z" transform="translate(-213.35 -10.58)" style="fill:#fff"/><path d="M219.86,23.92v5h2.89a2.5,2.5,0,0,0,0-5h-2.89Zm0,11.14v4.43h-6.14V17.78h9a8.64,8.64,0,0,1,0,17.28h-2.89Z" transform="translate(-213.35 -10.58)" style="fill:#000"/><path d="M219.5,28.91V23.56h3.25a2.82,2.82,0,0,1,1.09.22,2.89,2.89,0,0,1,1.55,1.55,2.8,2.8,0,0,1,0,2.18,2.89,2.89,0,0,1-1.55,1.55,2.83,2.83,0,0,1-1.09.22H219.5V28.91Zm0.72-4.63v4.27h2.53a2.1,2.1,0,0,0,.81-0.16,2.18,2.18,0,0,0,1.16-1.16,2.12,2.12,0,0,0,0-1.62,2.18,2.18,0,0,0-.47-0.69,2.15,2.15,0,0,0-.69-0.47,2.08,2.08,0,0,0-.81-0.16h-2.53ZM219.5,39.13V34.7h3.25a8.28,8.28,0,0,0,0-16.56h-8.68v21h5.43Zm0.72-3.71v4.43h-6.86V17.42h9.4a9,9,0,0,1,0,18h-2.53Z" transform="translate(-213.35 -10.58)" style="fill:#fff"/><path d="M219.86,22.25v5h2.89a2.5,2.5,0,0,0,0-5h-2.89Zm0,11.14v4.43h-6.14V16.1h9a8.64,8.64,0,0,1,0,17.28h-2.89Z" transform="translate(-213.35 -10.58)" style="fill:#000"/><path d="M219.5,27.24V21.89h3.25a2.8,2.8,0,0,1,1.09.22,2.89,2.89,0,0,1,1.55,1.55,2.8,2.8,0,0,1,0,2.17,2.88,2.88,0,0,1-1.55,1.55,2.81,2.81,0,0,1-1.09.22H219.5V27.24Zm0.72-4.63v4.27h2.53a2.08,2.08,0,0,0,.81-0.16,2.16,2.16,0,0,0,.69-0.47,2.18,2.18,0,0,0,.47-0.69,2.12,2.12,0,0,0,0-1.62,2.18,2.18,0,0,0-1.16-1.16,2.1,2.1,0,0,0-.81-0.16h-2.53ZM219.5,37.46V33h3.25a8.25,8.25,0,0,0,5.85-2.43,8.32,8.32,0,0,0,1.8-2.69,8.26,8.26,0,0,0-1.8-9,8.33,8.33,0,0,0-2.69-1.8,8.24,8.24,0,0,0-3.16-.63h-8.68v21h5.43Zm0.72-3.71v4.43h-6.86V15.74h9.4a9,9,0,0,1,0,18h-2.53Z" transform="translate(-213.35 -10.58)" style="fill:#fff"/><path d="M219.86,20.54v5h2.89a2.5,2.5,0,0,0,0-5h-2.89Zm0,11.14v4.43h-6.14V14.4h9a8.64,8.64,0,0,1,0,17.28h-2.89Z" transform="translate(-213.35 -10.58)" style="fill:#000"/><path d="M219.5,25.53V20.18h3.25a2.82,2.82,0,0,1,1.09.22A2.88,2.88,0,0,1,225.38,22a2.8,2.8,0,0,1,0,2.18,2.89,2.89,0,0,1-1.55,1.55,2.82,2.82,0,0,1-1.09.22H219.5V25.53Zm0.72-4.63v4.27h2.53a2.1,2.1,0,0,0,.81-0.16,2.19,2.19,0,0,0,1.16-1.16,2.12,2.12,0,0,0,0-1.62,2.19,2.19,0,0,0-1.16-1.16,2.1,2.1,0,0,0-.81-0.16h-2.53ZM219.5,35.75V31.32h3.25a8.28,8.28,0,0,0,0-16.56h-8.68v21h5.43ZM220.21,32v4.43h-6.86V14h9.4a9,9,0,0,1,0,18h-2.53Z" transform="translate(-213.35 -10.58)" style="fill:#fff"/><path d="M219.86,18.82v5h2.89a2.5,2.5,0,0,0,0-5h-2.89Zm0,11.14v4.43h-6.14V12.67h9a8.64,8.64,0,0,1,0,17.28h-2.89Z" transform="translate(-213.35 -10.58)" style="fill:#000"/><path d="M219.5,23.81V18.46h3.25a2.8,2.8,0,0,1,1.09.22,2.89,2.89,0,0,1,1.55,1.55,2.8,2.8,0,0,1,0,2.17,2.89,2.89,0,0,1-.62.93h0a2.89,2.89,0,0,1-.93.62,2.82,2.82,0,0,1-1.09.22H219.5V23.81Zm0.72-4.63v4.27h2.53a2.12,2.12,0,0,0,.81-0.16,2.18,2.18,0,0,0,1.16-1.16,2.12,2.12,0,0,0,0-1.62,2.19,2.19,0,0,0-.47-0.69,2.16,2.16,0,0,0-.69-0.47,2.1,2.1,0,0,0-.81-0.16h-2.53ZM219.5,34V29.6h3.25a8.28,8.28,0,0,0,0-16.56h-8.68V34h5.43Zm0.72-3.71v4.43h-6.86V12.31h9.4a9,9,0,0,1,0,18h-2.53Z" transform="translate(-213.35 -10.58)" style="fill:#fff"/><path d="M219.86,17.08v5h2.89a2.5,2.5,0,0,0,0-5h-2.89Zm0,11.14v4.43h-6.14V10.94h9a8.64,8.64,0,0,1,0,17.28h-2.89Z" transform="translate(-213.35 -10.58)" style="fill:#000"/><path d="M219.5,22.07V16.72h3.25a2.8,2.8,0,0,1,1.09.22,2.89,2.89,0,0,1,1.55,1.55,2.8,2.8,0,0,1,0,2.18,2.9,2.9,0,0,1-.62.93h0a2.89,2.89,0,0,1-.93.62,2.82,2.82,0,0,1-1.09.22H219.5V22.07Zm0.72-4.63v4.27h2.53a2.1,2.1,0,0,0,.81-0.16,2.15,2.15,0,0,0,.69-0.47,2.18,2.18,0,0,0,.47-0.69,2.12,2.12,0,0,0,0-1.62,2.17,2.17,0,0,0-1.16-1.16,2.1,2.1,0,0,0-.81-0.16h-2.53ZM219.5,32.29V27.86h3.25a8.28,8.28,0,0,0,0-16.56h-8.68v21h5.43Zm0.72-3.71V33h-6.86V10.58h9.4a9,9,0,0,1,0,18h-2.53Z" transform="translate(-213.35 -10.58)" style="fill:#fff"/>
    </symbol>
    <symbol id="icon_10" viewBox="0 0 28.75 34.29">
      <path d="M229.38,279.21a5.17,5.17,0,0,1,.48.77,34.77,34.77,0,0,0,2.41,3.91c0.4,0.59.79,1.16,1.15,1.74-0.15-1-.34-2-0.55-2.91a4.69,4.69,0,0,0-3.49-3.51m-22.32,17.54a7.63,7.63,0,0,0,1,3.92c0-.7-0.07-1.42-0.15-2.15s-0.25-1.65-.4-2.49c-0.08-.41-0.15-0.83-0.22-1.24q-0.11.62-.18,1.25c0,0.24,0,.48,0,0.71m15.57,11.07a7.66,7.66,0,0,0,4.13-1.5,42.72,42.72,0,0,1-4.13,1.5m5.29-2a8.19,8.19,0,0,1-5.86,2.38l-0.45,0-0.06,0-1.28.4a8.62,8.62,0,0,1-4,.21,10.4,10.4,0,0,1-3.91-1.49,8.16,8.16,0,0,1-2.37-2.45,16.9,16.9,0,0,1-1.44-2.79l-0.14-.18a8.55,8.55,0,0,0,1.78,5.16c2.19,2.72,5.55,3.15,8.86,2.67a32.24,32.24,0,0,0,8.62-2.84,12,12,0,0,0,5.12-5.21,19.51,19.51,0,0,0,2.3-8.33,11.6,11.6,0,0,0-1.17-6,46.16,46.16,0,0,1,.31,6.42c-0.08,3.25-.58,6.21-1.6,8.09a10.61,10.61,0,0,1-4.76,4m-2.24-27.61a4.83,4.83,0,0,1,2.59.35,7.6,7.6,0,0,0-5-1.31,15.28,15.28,0,0,0-6,1.51,8,8,0,0,0-.69.39l0.77-.19a30.4,30.4,0,0,1,8.31-.76M211.35,284a5.93,5.93,0,0,0-2.09,1.54c-0.29.62-.59,1.3-0.89,2.06a10,10,0,0,0,0,2.48,28.91,28.91,0,0,1,1.33-2.77,34.12,34.12,0,0,1,2.27-3.6l-0.59.29m-1.63.62a7.74,7.74,0,0,1,1.49-.91l1.14-.56a30,30,0,0,1,2.84-3.3,8.87,8.87,0,0,0-4.32,3,12.69,12.69,0,0,0-1.15,1.81m-1.69,3a4.44,4.44,0,0,1,1-2.27,14.71,14.71,0,0,1,1.61-2.7,9.25,9.25,0,0,1,4.6-3.11l0.54-.18,0.15-.13a6.38,6.38,0,0,1,1.23-.79,15.59,15.59,0,0,1,6.1-1.55,7.42,7.42,0,0,1,5.73,1.83,5.68,5.68,0,0,1,4.06,3.38,4.69,4.69,0,0,1,.16.54c0.27,1.16.49,2.41,0.67,3.7a11.91,11.91,0,0,1,1.61,7,19.85,19.85,0,0,1-2.34,8.47,12.32,12.32,0,0,1-5.27,5.35,32.55,32.55,0,0,1-8.71,2.87c-3.41.5-6.87,0-9.16-2.79a9.31,9.31,0,0,1-1.89-5.87,8,8,0,0,1-1.36-4.6c0-.25,0-0.49,0-0.74a19,19,0,0,1,.36-2.15,9.68,9.68,0,0,1,.32-4.8c0.19-.5.38-1,0.56-1.43m0.06,3.16a17.26,17.26,0,0,1-.14-2.07l-0.17.45a8.46,8.46,0,0,0-.4,3.79c0.2-.74.44-1.46,0.71-2.17m7-8.9a18.31,18.31,0,0,1,5.16-2.34l0.58-.13a26.58,26.58,0,0,1,3.17-1,31.71,31.71,0,0,0-6.5.8c-0.56.13-1.08,0.27-1.53,0.4a26.15,26.15,0,0,0-2.91,3.22l2-1m-3.86,3.57a11.54,11.54,0,0,1,2.34-2.47l-0.76.37-0.19.1c-0.46.62-.93,1.29-1.39,2m4.6,19.12a2.93,2.93,0,0,0,2.32,1.41l-1.15-.7-1.17-.71m-5.1-.89a8,8,0,0,1-.82-4.65,9.78,9.78,0,0,1-1.12-3.54c-0.11-.92-0.24-1.77-0.35-2.57-0.07-.5-0.14-1-0.21-1.44a22.15,22.15,0,0,0-.7,2.38c0.1,0.7.23,1.4,0.36,2.1s0.31,1.69.41,2.51,0.12,1.47.15,2.18c0,0.16,0,.32,0,0.48l0.15-.06c0.1,0.27.2,0.53,0.31,0.79a11.68,11.68,0,0,0,1.8,1.82m6,4.81a4.7,4.7,0,0,1-.79-0.39,17.79,17.79,0,0,1-4.61-3.56,13.75,13.75,0,0,1-2-1.68,15.13,15.13,0,0,0,1,1.78,7.82,7.82,0,0,0,2.27,2.36,10.08,10.08,0,0,0,3.79,1.44l0.32,0m3.63-.48a5.15,5.15,0,0,1-.71.39c0.2,0,.39-0.1.57-0.15l0.57-.18-0.42-.05M224,279.43a1,1,0,0,0-.5-0.07Zm-1.25-.14a1.44,1.44,0,0,1,1.38-.16,1.67,1.67,0,0,1,.44.29l0.17,0.16a9,9,0,0,1,2.59,1.1,7.16,7.16,0,0,1,2.64,2.91,23.19,23.19,0,0,1-.76-3.14,2.11,2.11,0,0,0-1.09-1.62,14.65,14.65,0,0,0-1.79-.29l-0.67-.06-0.78.1a19.35,19.35,0,0,0-2.75.69h0.62m-0.45.78h0a9.1,9.1,0,0,1,1.75-.3,9.77,9.77,0,0,0-1.22-.15,3.41,3.41,0,0,0-.54.45m4.55,25.11a3,3,0,0,0,1.3-.12l0.12-.12a13.48,13.48,0,0,0,1.28-1.63,7.58,7.58,0,0,1-3,1.82l0.31,0.05m0.87,0.32a3.45,3.45,0,0,1-.91,0,4.07,4.07,0,0,1-.79-0.18,21.2,21.2,0,0,1-3.6.9l-0.21,0a9.36,9.36,0,0,1-1.52,1.49h0.07l0.78,0.06a42,42,0,0,0,6.16-2.3h0Zm3.35-4c0.08-.23.15-0.46,0.22-0.71a17.1,17.1,0,0,1-2.38,3.89,3.64,3.64,0,0,0,.46-0.36,6.85,6.85,0,0,0,1.7-2.82m0.91-2.4a13.76,13.76,0,0,1-.6,2.51,7.84,7.84,0,0,1-1.38,2.53,7.85,7.85,0,0,0,2.37-2.54c1-1.84,1.48-4.74,1.56-7.95a46,46,0,0,0-.41-7.21c-0.46-.81-1-1.58-1.54-2.39a35.14,35.14,0,0,1-2.43-3.95l-0.17-.31a3.23,3.23,0,0,1,.16.61,34.1,34.1,0,0,0,1.71,5.91c1.2,3.4,2.38,6.72,1.52,10.23a25.65,25.65,0,0,1-.77,2.56m-0.35-5.39a8.35,8.35,0,0,0-.91-2.69c0,1,0,2.1,0,3.11a19,19,0,0,1-.88,6.35,10.37,10.37,0,0,1,.06,2.08,1.17,1.17,0,0,1-.11.35,20.28,20.28,0,0,0,1.88-3.9,18.07,18.07,0,0,0,0-5.31m-0.92-3.34a8.75,8.75,0,0,1,1.24,3.29,18.69,18.69,0,0,1,.18,3.92q0.17-.56.3-1.11c0.84-3.41-.32-6.69-1.51-10l-0.36-1a8.73,8.73,0,0,1,.15,1.86c0,1,0,2,0,3.11m-17.24,9.88a15.8,15.8,0,0,0,.31,2.6c0.43,0.32.87,0.62,1.31,0.91L214.8,303c-0.39-1-.84-2.15-1.31-3.39,0,0.23,0,.46,0,0.67m1.22,5.84a6.11,6.11,0,0,1-.38-0.64,9.77,9.77,0,0,1-.83-2.41,13.27,13.27,0,0,1-3.35-3.5,7.16,7.16,0,0,0,.81,4,6.07,6.07,0,0,0,.54.78l0.24,0.16a18.52,18.52,0,0,0,3,1.63m1.34,0.88a2.71,2.71,0,0,0,1.25.4q-0.62-.18-1.25-0.4m2.22,0.32a5.62,5.62,0,0,0,1.37-.51,2.93,2.93,0,0,1-.91-0.39l-0.34,0c-1.46-.2-2.59-0.74-3-1.76l-0.12-.31c-0.47-.3-0.94-0.61-1.4-0.94a9,9,0,0,0,.72,2,5,5,0,0,0,.7,1,21.81,21.81,0,0,0,2.94.94m0,0.33a4,4,0,0,1-.62.07,3.07,3.07,0,0,1-2-.59,3.72,3.72,0,0,1-.54-0.49,20.1,20.1,0,0,1-2.65-1.3,24.16,24.16,0,0,0,3.57,2.5,4.23,4.23,0,0,0,1.1.48,3.52,3.52,0,0,0,2.64-.37c-0.5-.08-1-0.18-1.53-0.31m5.33-3.32,0.29-.22-0.11-.08-0.11.19Zm-3.31,2.13h-0.65a1.28,1.28,0,0,0,.65,0m0.75-.05h0a1.54,1.54,0,0,1-.69.39l-0.53.28a6.72,6.72,0,0,1-.88.38c0.44,0.09.88,0.17,1.3,0.23l0.25-.18a8.46,8.46,0,0,0,1.26-1.18l-0.71.07m1.31-.81-0.66.42,0.37,0,0.29-.37M221.66,285c-0.61-.33-1.22-0.64-1.81-0.91-0.21.45-.42,0.92-0.62,1.39a4.23,4.23,0,0,1,1.31-.41,6.1,6.1,0,0,1,1.11-.06m-4.32-2.25,0.92,0.32a5.56,5.56,0,0,1,.75-0.58,3.54,3.54,0,0,1,1.61-.58c0.25-.42.5-0.81,0.75-1.17a20.18,20.18,0,0,0-4,2m-2.38-.4a3.11,3.11,0,0,1,.64,0,7.85,7.85,0,0,1,1.33.27,20.16,20.16,0,0,1,4.8-2.35q0.18-.22.37-0.41l0.25-.24a8.67,8.67,0,0,0-1.49.12c-1.93.7-3.92,1.6-5.67,2.44l-0.23.15m-3.13,5.77a17.4,17.4,0,0,0-.53,3c0.22-.72.48-1.43,0.76-2.12a13.48,13.48,0,0,1,4-5.74l0.54-.39a6.92,6.92,0,0,0-1-.19,1.5,1.5,0,0,0-1,.14c-1,.78-2.07,2.86-2.72,5.3M211,290.83a17.8,17.8,0,0,1,.52-2.82,14.31,14.31,0,0,1,2.08-4.67,7.61,7.61,0,0,0-3,4.22,9.89,9.89,0,0,0,.35,3.27m-0.07,1.57c0-.17,0-0.34,0-0.51a12.59,12.59,0,0,1-.6-4.37,4.87,4.87,0,0,1,.69-1.79c-0.36.57-.71,1.17-1.05,1.79a28.19,28.19,0,0,0-1.54,3.31c0.08,0.64.18,1.32,0.28,2.05s0.24,1.66.36,2.57a9.48,9.48,0,0,0,.84,2.94l0-.24a34.55,34.55,0,0,1,1-5.75m0.53,2.06a5.11,5.11,0,0,0,.86,1.86c-0.38-1.08-.73-2.17-1-3.2a10.28,10.28,0,0,0,.18,1.34m1.19,2.8a6.28,6.28,0,0,1-1.51-2.73c-0.07-.33-0.12-0.67-0.15-1a34,34,0,0,0-.73,4.67c0,0.27,0,.53-0.06.77a12.2,12.2,0,0,0,3.23,3.62,16.65,16.65,0,0,1-.24-2.29,11.37,11.37,0,0,1,0-1.44c-0.19-.52-0.39-1.05-0.58-1.58m0.68,0.71-0.12-.12,0.1,0.27,0-.15m8.21,3.57a4.5,4.5,0,0,0,.9-0.08,19.34,19.34,0,0,1-1.84-1q0.44,0.52.94,1m1.09,0.21-0.09,0a4.45,4.45,0,0,1-.69.08l0.59,0.57,0.19-.67m6.3-11.6q0.14-.65.22-1.31-0.33-.34-0.69-0.65L228,287.8v0.09c0.07,0.48.14,1,.22,1.46,0.26,0.26.5,0.53,0.72,0.8m-2.34,6.65c-0.4.72-.8,1.42-1.18,2.08s-0.59,1-.85,1.49a2.69,2.69,0,0,1-1.19,1.13q0.61,0.24,1.2.42a40.74,40.74,0,0,0,2-5.12m2.85-7.64c-0.06.44-.14,0.89-0.24,1.32a7.48,7.48,0,0,1,1.26,2.29c0-.68,0-1.38,0-2.06v-0.22a10.34,10.34,0,0,0-1-1.32m-0.5-4.15a3.26,3.26,0,0,0-1.46-2.08c0,1,.16,2.31.35,3.74q0.06,0.33.1,0.68c0.25,0.19.5,0.39,0.74,0.6s0.35,0.31.51,0.48a11,11,0,0,0-.24-3.42m-1.79-2.27a4.51,4.51,0,0,0-.51-0.22,15.92,15.92,0,0,1,.58,1.58c0-.49-0.06-1-0.07-1.36m0.32-.2,0,0a3.58,3.58,0,0,1,1.74,2.37,11.43,11.43,0,0,1,.23,3.8,10.86,10.86,0,0,1,.95,1.16c0-.9,0-1.78,0-2.62a8.15,8.15,0,0,0-.25-2.22,6.75,6.75,0,0,0-3-4.08l-0.23-.14a2.54,2.54,0,0,1,.21.37,3.47,3.47,0,0,1,.29,1.35m-1-.42a5.15,5.15,0,0,1,.67.25,3,3,0,0,0-.25-1,2.11,2.11,0,0,0-1.6-1.17,10.1,10.1,0,0,1,1.18,2m-5.7.17,0.25-.06,0.13,0h-0.32Zm-1.68.51c0.41-.14.82-0.27,1.24-0.39l0.1-.18a3.33,3.33,0,0,0-1.24.5l-0.1.07m-5,3a10.74,10.74,0,0,1,3.8-2.51L217,283l-0.76.54a9.74,9.74,0,0,0-2.12,2.27m7.29,19.59a5.87,5.87,0,0,1-3-.09,2.86,2.86,0,0,1-1.88-2c-0.22-.76-0.47-1.59-0.74-2.46l-0.36-1.18a15.18,15.18,0,0,1-1.8-1.39q0,0.28-.06.56c0.56,1.5,1.11,2.91,1.56,4.07l0.47,1.21c0.52,0.33,1,.64,1.53.93s1.2,0.72,1.72,1.06l0,0a12.86,12.86,0,0,0,2,0,2.5,2.5,0,0,0,.31-0.39c0.07-.11.14-0.22,0.2-0.34m1.19-.31c-0.26.08-.52,0.16-0.78,0.22q-0.11.23-.23,0.44l1-.65m1.68-.67-0.49.23-0.64.46c-0.19.28-.39,0.56-0.59,0.82a21,21,0,0,0,3-.74,7.11,7.11,0,0,1-1.31-.77m2.57-2a7,7,0,0,0,2.5-3.53l0-.3a15.48,15.48,0,0,1-1.85,2.67c-0.33.38-.67,0.76-1,1.12l0.42,0M225,303.61a13.37,13.37,0,0,0,1.44-1l-0.28,0h-0.06c-0.36.35-.73,0.68-1.11,1h0Zm1.93-.93a13.37,13.37,0,0,1-1.76,1.21l-0.59.32A6.12,6.12,0,0,0,226,305l0.37-.14c1.78-.68,3.09-1.52,3.19-2.3a7.85,7.85,0,0,0,0-1.46,2.77,2.77,0,0,1-2.61,1.6h0Zm2.49-3.11a7.85,7.85,0,0,1-2.09,2.77,2.71,2.71,0,0,0,2.19-1.89q0-.42-0.1-0.88m-2.21-11.15c-0.22-.54-0.44-1.07-0.66-1.58-0.27-.16-0.54-0.31-0.82-0.44a8.32,8.32,0,0,1,.35,1.08c0.39,0.31.77,0.62,1.13,0.94m2.23,8.88a18.56,18.56,0,0,0-.71-4.45l0.08,0.49c0.22,1.38.44,2.73,0.63,4m0.33,0.24c0,0.25,0,.51,0,0.76a3.81,3.81,0,0,1-.08.54q0.07,0.48.12,0.93a17.21,17.21,0,0,0,.58-4,11.28,11.28,0,0,1-.59,1.73m-1-5.7a21.5,21.5,0,0,1,1,4.87,10.26,10.26,0,0,0,.54-2.39,5.16,5.16,0,0,0-1.22-3.44q-0.13.49-.28,1m-0.41-1.27,0.24,0.72c0.07-.25.14-0.5,0.2-0.75h0c-0.17-.21-0.35-0.42-0.54-0.63l0.1,0.67m-5.9-8.63a3.44,3.44,0,0,1,1.16-.11c0.3,0,.6,0,0.89,0A8.12,8.12,0,0,1,226,282a8.91,8.91,0,0,0-1.24-1.92,7.77,7.77,0,0,0-2.64.36l-0.24.07a11.62,11.62,0,0,0-.92,1.34,3,3,0,0,1,.89.18h0l0.58-.09m-2,.86,0.39-.21-0.32.08Zm-1.09.68,0.56-.37,0.17-.32c-0.45.13-.89,0.28-1.32,0.44l0.59,0.25m-0.67.88a23.82,23.82,0,0,0-2.51,2.24,17.76,17.76,0,0,0-1.44,5,5.07,5.07,0,0,0,0,.57c0,0.16,0,.31,0,0.46a22.32,22.32,0,0,1,3.61-6.48,2.92,2.92,0,0,1,.41-0.39c0.25-.61.52-1.23,0.8-1.83l-0.14-.06-0.7.52m-2.07,1.35a23.92,23.92,0,0,1,1.87-1.6l0.55-.41-0.72-.29h0a9.34,9.34,0,0,0-1.4,1.84l-0.26.46m-3.14,3.91a13.7,13.7,0,0,1,2.41-3.19,14.37,14.37,0,0,1,.71-1.34,10.65,10.65,0,0,1,.95-1.35,8.19,8.19,0,0,0-3.52,2.63,6.09,6.09,0,0,0-.55,3.25m0.1,0.62,0,0.16a28.92,28.92,0,0,0,.65,3.71q0.13-.42.28-0.84a5.62,5.62,0,0,1-.1-1.13,5.22,5.22,0,0,1,0-.61,18,18,0,0,1,1.11-4.22,9.24,9.24,0,0,0-1.94,2.93m0.48,5.45c0.11,0.25.24,0.5,0.38,0.75q-0.15-.55-0.29-1.1l-0.09.34m-0.3-.73,0.09,0.24,0.14-.49c-0.28-1.15-.51-2.27-0.66-3.33a7.35,7.35,0,0,0,.43,3.59m0,0.76c-0.1-.22-0.18-0.43-0.26-0.65a7.55,7.55,0,0,1-.25-4.73,7.83,7.83,0,0,1,.41-3.9,18.72,18.72,0,0,0-1.3,2.62,26.91,26.91,0,0,0-1,3c0.43,1.55,1,3.27,1.6,5l0.45,0.48c0.1-.6.22-1.21,0.38-1.83m1.05,1.88a13.72,13.72,0,0,1-.83-1.42c-0.13.56-.24,1.11-0.32,1.64a14.4,14.4,0,0,0,1.59,1.29c-0.15-.5-0.3-1-0.45-1.51m1.9,2.42q-0.74-.82-1.33-1.61l0.3,1q0.47,0.31,1,.58Zm0.82,0.41,0,0a12.51,12.51,0,0,0,2.18.8,8.13,8.13,0,0,0,1.33.24q-0.72-.77-1.32-1.55c-0.39-.26-0.78-0.54-1.15-0.84a11,11,0,0,1-3.95-5.25c-0.1.29-.19,0.58-0.27,0.87,0.22,0.91.48,1.83,0.74,2.74a22.22,22.22,0,0,0,2.43,3m5.28,2.31a5.87,5.87,0,0,0,1.39-.17l0.19-.38c-0.47-.14-0.94-0.32-1.43-0.52v0.05l-0.26.92Zm-1.09-.09,0.59,0.07q-0.48-.44-0.92-0.89a8.08,8.08,0,0,1-1.74-.27,12,12,0,0,1-1.36-.44,7.44,7.44,0,0,0,3.43,1.54m0.52,0.39-0.57-.07a7.81,7.81,0,0,1-4.31-2.26c-0.29-.14-0.59-0.29-0.88-0.45l-0.66-.38,0.25,0.81c0.27,0.88.53,1.71,0.74,2.46a2.55,2.55,0,0,0,1.68,1.78,5.75,5.75,0,0,0,3,0h0a15.63,15.63,0,0,0,.67-1.91m0.44,0h-0.11a18.32,18.32,0,0,1-.61,1.8,11.34,11.34,0,0,0,1.13-.36l0.3-.48,0.14-.23q-0.44-.36-0.85-0.72M224,303a6.21,6.21,0,0,1-.84.1l0.53,0.44L224,303m0.8-.56,0.12,0-0.21-.06-0.08.17,0.17-.06m0.63,0.07a5.24,5.24,0,0,1-.52.23l-0.49.16c-0.15.29-.31,0.57-0.47,0.85l0.21,0.16c0.54-.42,1.06-0.87,1.56-1.35l-0.29-.06m2.2-5.32c-0.07-.72-0.11-1.45-0.13-2.16l-0.14.28a42.54,42.54,0,0,1-2.51,6.73l0.53,0.13a4.2,4.2,0,0,0,1.63-1.57,5.49,5.49,0,0,0,.61-3.41m0.18-2.82c0,0.92,0,1.86.14,2.79a5.81,5.81,0,0,1-.66,3.61,4.49,4.49,0,0,1-1.44,1.5l0.16,0c0.41-.41.81-0.83,1.19-1.27a14.77,14.77,0,0,0,2-3c-0.2-1.39-.46-3-0.72-4.58l-0.08-.5c-0.19.49-.39,1-0.61,1.44m0-1v0.16c0.18-.43.35-0.86,0.51-1.3l-0.24-1.48a18.8,18.8,0,0,1-.27,2.62m-0.32-.8a31.62,31.62,0,0,0-.11-3.57c-0.37-.35-0.76-0.69-1.18-1a9.38,9.38,0,0,1,.16,1.82,19.26,19.26,0,0,1-1.9,7.29,32.32,32.32,0,0,0-1.38,4.15,2.39,2.39,0,0,0,1.16-1c0.27-.49.56-1,0.86-1.5,0.64-1.1,1.33-2.3,2-3.55l0.14-.51c0.11-.43.21-0.86,0.29-1.3,0-.26,0-0.52,0-0.77m-3.14-6.76-0.55,0c0.64,0.41,1.27.84,1.87,1.29a8.12,8.12,0,0,0-.36-1c-0.28-.13-0.57-0.24-0.85-0.34Zm1.72,0.38a2.25,2.25,0,0,0-.42-0.21l0.42,0.21m1.27,1.13a5.14,5.14,0,0,1,.17.55,7.77,7.77,0,0,1,.15.77l0.06,0.16c0-.3,0-0.6-0.07-0.9l-0.06-.4-0.25-.18m-0.69-1.12a2.66,2.66,0,0,1,.43.56l0.46,0.31,0-.35c0-.15-0.05-0.31-0.08-0.46a17.22,17.22,0,0,0-1.19-3.87,7.31,7.31,0,0,0-1.68-.24,1.89,1.89,0,0,1,.64.81l0.46,1c0.32,0.7.66,1.45,1,2.25m-1.29-.66a2.7,2.7,0,0,1,.76.27l-0.78-1.73-0.46-1a1.55,1.55,0,0,0-.62-0.73,1.59,1.59,0,0,0-.63-0.2c-0.36,0-.73.06-1.1,0.11l-0.09,0a5.08,5.08,0,0,1,1.1.85,10.13,10.13,0,0,1,1.81,2.41m-1-.07a4.8,4.8,0,0,1,.57,0,10,10,0,0,0-1.64-2.12,4.45,4.45,0,0,0-1.31-.94l-0.13,0a10.56,10.56,0,0,0-1.69.87l-0.2.41c0.74,0.34,1.51.74,2.28,1.18l0.15,0.09a10.2,10.2,0,0,1,2,.46m-1,.11,0.15,0-0.32-.08,0.17,0.1m-5.66,2.9a6.43,6.43,0,0,0-2.27,3.42l-0.09,0q-0.23.56-.44,1.13l-0.1.28a10.17,10.17,0,0,0,4,5.56l0.36,0.28a16.5,16.5,0,0,1-1-1.6,9.4,9.4,0,0,1-1.18-6.74c0.17-.6.42-1.4,0.73-2.3m5-2.42a12.75,12.75,0,0,0-4.51,2c-0.39,1.09-.69,2.06-0.89,2.77a9.08,9.08,0,0,0,1.16,6.5,16.83,16.83,0,0,0,1.49,2.32,19,19,0,0,0,2.79,1.53,33.21,33.21,0,0,1,1.42-4.28,19,19,0,0,0,1.87-7.17,8.86,8.86,0,0,0-.23-2.14,29.63,29.63,0,0,0-2.49-1.72l-0.61.14m-4.32,1.51a13.48,13.48,0,0,1,4.24-1.83l0.28-.07-0.6-.35a6.45,6.45,0,0,0-1.73,0,3.59,3.59,0,0,0-1.57.6c-0.23.55-.44,1.11-0.63,1.63m-1.59,1.34a9.06,9.06,0,0,1,1.12-1c0.16-.46.34-0.94,0.53-1.42a16.33,16.33,0,0,0-1.65,2.43" transform="translate(-206.74 -276.89)" style="fill:#fff"/><path d="M214.37,307.73A6.51,6.51,0,0,1,214,307a43.93,43.93,0,0,0-2.27-4.17c-0.36-.6-0.7-1.18-1-1.76,0.16,0.94.34,1.86,0.54,2.73a6.19,6.19,0,0,0,3.16,3.93m19.9-12.3a8.64,8.64,0,0,0-.93-4.53c0,0.64.09,1.29,0.17,2s0.26,1.63.42,2.46c0.08,0.39.15,0.78,0.22,1.16,0-.35.09-0.69,0.12-1m-14.36-14a5.67,5.67,0,0,0-3.72.75,31.3,31.3,0,0,1,3.72-.75m-4.72,1.06a6.07,6.07,0,0,1,5.3-1.29l0.4,0.09h0l1.15-.17a7.53,7.53,0,0,1,3.6.47,11.58,11.58,0,0,1,3.58,2.09,10.35,10.35,0,0,1,2.19,2.74,21.16,21.16,0,0,1,1.37,2.93l0.09,0.13a10.11,10.11,0,0,0-1.72-5.15,9.67,9.67,0,0,0-8.1-4.08,24.16,24.16,0,0,0-7.75,1.27,8.25,8.25,0,0,0-4.5,4.11,16.79,16.79,0,0,0-1.91,7.6,13.14,13.14,0,0,0,1.14,5.89,48.07,48.07,0,0,1-.4-6c0-3.11.39-5.87,1.28-7.51a7.31,7.31,0,0,1,4.25-3.07m2.6,26.89a5.06,5.06,0,0,1-2.13-.63,8.37,8.37,0,0,0,4.83,2,11.13,11.13,0,0,0,5.43-.68l0.14-.07a26,26,0,0,1-8.26-.62m12.92-3.22a4,4,0,0,0,1.85-1.12c0.25-.54.5-1.14,0.75-1.8a10,10,0,0,0,0-2.37,22.37,22.37,0,0,1-1.12,2.37,24.8,24.8,0,0,1-2,3.1l0.55-.18m1.46-.33a5.42,5.42,0,0,1-1.35.63l-1,.34a21,21,0,0,1-2.51,2.69,6.09,6.09,0,0,0,3.86-2.1,9.14,9.14,0,0,0,1-1.57m1.49-2.58a3.54,3.54,0,0,1-.86,2,10.8,10.8,0,0,1-1.4,2.31,6.44,6.44,0,0,1-4.13,2.23l-0.48.08-0.13.1a3.68,3.68,0,0,1-.61.35,11.49,11.49,0,0,1-5.6.71,8.22,8.22,0,0,1-5.66-2.78,6.77,6.77,0,0,1-3.9-4.45c-0.27-1.16-.5-2.4-0.69-3.67a13.64,13.64,0,0,1-1.61-7,17.12,17.12,0,0,1,1.95-7.74,8.56,8.56,0,0,1,4.69-4.27,24.43,24.43,0,0,1,7.86-1.28,10,10,0,0,1,8.36,4.22,11,11,0,0,1,1.83,5.94,9.2,9.2,0,0,1,1.31,5.35,17.22,17.22,0,0,1-.28,2,9.47,9.47,0,0,1-.19,4.56q-0.24.67-.47,1.27m-0.12-3a17.88,17.88,0,0,1,.17,2l0.12-.33a8,8,0,0,0,.28-3.52,19.43,19.43,0,0,1-.57,1.86m-6.14,7.4a13.15,13.15,0,0,1-4.65,1.38l-0.51,0h0l-0.76.14a18.59,18.59,0,0,1-2,.24,25.45,25.45,0,0,0,7.22.21,17.94,17.94,0,0,0,2.57-2.6l-1.84.61m-1.22-22a3.52,3.52,0,0,0-2-1.6l1,0.8,1,0.8m-4.08-2.48,0.47,0.08a1.1,1.1,0,0,0-.47-0.08m8.89,4.42a9.08,9.08,0,0,1,.76,4.44,11.6,11.6,0,0,1,1.1,3.59c0.12,0.91.25,1.74,0.38,2.53,0.08,0.49.15,1,.21,1.4a18.15,18.15,0,0,0,.55-2.09c-0.1-.69-0.24-1.38-0.37-2.07s-0.32-1.67-.43-2.48-0.14-1.43-.19-2.12l0-.49-0.14,0c-0.1-.28-0.2-0.55-0.3-0.81a15,15,0,0,0-1.56-1.93m-5.51-5.71a5.56,5.56,0,0,1,.61.43,22.15,22.15,0,0,1,4.26,4.19l0.59,0.57c0.39,0.39.76,0.8,1.1,1.22a18.84,18.84,0,0,0-.85-1.69,10,10,0,0,0-2.12-2.66,11.25,11.25,0,0,0-3.48-2l-0.11,0m-3.41-.23a3.73,3.73,0,0,1,.62-0.24,4.4,4.4,0,0,0-.54.05l-0.46.07,0.38,0.12m-1.69,26.84a2.31,2.31,0,0,0,.47-0.34l-0.57,0a6.94,6.94,0,0,1-.94,0,9.29,9.29,0,0,0,1,.32m-0.85.09,0.08,0Zm0.89,0.26a1.24,1.24,0,0,1-1.09,0,1.78,1.78,0,0,1-.57-0.44l-0.16-.19a10.27,10.27,0,0,1-2.1-1.28,9.17,9.17,0,0,1-2.59-3.17,25.71,25.71,0,0,1,.66,2.82,2.66,2.66,0,0,0,1,1.76l0.7,0.28c0.5,0.18,1,.34,1.54.47a13.17,13.17,0,0,0,3.13-.15l-0.55-.11m-4.63-25.64a2.39,2.39,0,0,0-.82,0l-0.09.09a9.55,9.55,0,0,0-1.14,1.38,3.71,3.71,0,0,1,1.56-.93,9.46,9.46,0,0,1,1.12-.32,3.36,3.36,0,0,0-.62-0.19m-0.43-.37a2.92,2.92,0,0,1,.49.06,3.93,3.93,0,0,1,1.09.4c0.4-.07.83-0.13,1.26-0.18a17.37,17.37,0,0,1,2.15-.07,6.43,6.43,0,0,1,1.33-1.16l-0.8-.22a31,31,0,0,0-5.52,1.16h0Zm-2.84,2.94a9.05,9.05,0,0,0-.28.91,12.53,12.53,0,0,1,2.08-3.3,2.51,2.51,0,0,0-.46.3,4.81,4.81,0,0,0-1.33,2.08m-0.9,2.5a11.71,11.71,0,0,1,.6-2.62,5.6,5.6,0,0,1,1.13-1.94,5.4,5.4,0,0,0-2.11,2c-0.86,1.59-1.23,4.3-1.24,7.36a48.61,48.61,0,0,0,.53,7c0.44,0.85.93,1.69,1.45,2.56a44.42,44.42,0,0,1,2.29,4.2l0,0.1c0-.11-0.05-0.22-0.07-0.33a40,40,0,0,0-1.68-6c-1.17-3.47-2.31-6.86-1.6-10.08a21.77,21.77,0,0,1,.65-2.32m0.46,5.17a9.93,9.93,0,0,0,.85,2.67,37.29,37.29,0,0,1,.27-7.65,7.15,7.15,0,0,1,.33-1.16,10.77,10.77,0,0,1-.1-2,1,1,0,0,1,.1-0.34,15.79,15.79,0,0,0-1.6,3.39,18.55,18.55,0,0,0,.14,5.1m0.88,3.42a10.57,10.57,0,0,1-1.2-3.37,19.5,19.5,0,0,1-.25-3.73c-0.08.3-.15,0.6-0.22,0.9-0.69,3.14.44,6.48,1.59,9.91l0.26,0.77c0-.22-0.06-0.45-0.08-0.68s0-.53,0-0.81c0-.95,0-2-0.06-3m15.43-6.57a17.33,17.33,0,0,0-.34-2.56c-0.37-.36-0.75-0.7-1.14-1l0.26,0.71c0.36,1,.79,2.15,1.23,3.39,0-.17,0-0.34,0-0.5m-1.15-5.77a8.62,8.62,0,0,1,.62,1.35,12.82,12.82,0,0,1,.49,1.7,16.89,16.89,0,0,1,3.09,3.87,7.45,7.45,0,0,0-1.33-4.71,21.74,21.74,0,0,0-2.86-2.21m-1.54-1.29a2.94,2.94,0,0,0-.73-0.38l0.73,0.38m-1.75-.86a3.24,3.24,0,0,1,2.38,1,4.63,4.63,0,0,1,.48.54,23.54,23.54,0,0,1,2.18,1.5,31.91,31.91,0,0,0-3.1-2.79,4.2,4.2,0,0,0-1.66-.87,2.85,2.85,0,0,0-1.71.12c0.46,0.16.94,0.35,1.42,0.56m-0.1.33a4.1,4.1,0,0,0-1.14.25,3.27,3.27,0,0,1,.85.54,4.19,4.19,0,0,1,3,2.27l0.12,0.33c0.41,0.35.82,0.71,1.23,1.08a11.94,11.94,0,0,0-.36-1.18,7.37,7.37,0,0,0-1-1.87,23.94,23.94,0,0,0-2.69-1.41h0Zm-2.39.4h0a1.13,1.13,0,0,1,.62-0.26l0.47-.18a5,5,0,0,1,.74-0.21c-0.4-.16-0.8-0.31-1.19-0.44a5.47,5.47,0,0,0-1.32,1l0.67,0.05m-1.21.57,0.6-.3-0.34,0-0.19.23-0.07.08m1.2,19.94c0.53,0.4,1.06.77,1.56,1.11,0.18-.4.35-0.8,0.52-1.21a2.72,2.72,0,0,1-.52.14,4.52,4.52,0,0,1-1.59-.06Zm3.86,2.86-0.86-.47a3.77,3.77,0,0,1-.53.36,2.71,2.71,0,0,1-1.57.36,10.39,10.39,0,0,1-.66,1,14.19,14.19,0,0,0,3.61-1.24m2.18,0.78h0a5.63,5.63,0,0,1-1.79-.6,14.38,14.38,0,0,1-4.29,1.44l-0.3.3-0.24.2a7.45,7.45,0,0,0,1.37.14,47.79,47.79,0,0,0,5.08-1.38l0.2-.1m2.71-5a15.89,15.89,0,0,0,.41-2.74c-0.18.62-.38,1.22-0.61,1.8a9.75,9.75,0,0,1-3.51,4.86l-0.47.27a4.74,4.74,0,0,0,1.47.46,0.61,0.61,0,0,0,.37-0.06c0.87-.58,1.8-2.38,2.34-4.6m0.72-2.41a16.25,16.25,0,0,1-.4,2.48,11.17,11.17,0,0,1-1.83,4.18,5.52,5.52,0,0,0,2.6-3.55,10.43,10.43,0,0,0-.37-3.12m0-1.63c0,0.16,0,.33,0,0.49a13.83,13.83,0,0,1,.64,4.3,5.93,5.93,0,0,1-2.85,3.85l0.73-.25,0.16-.05a24.88,24.88,0,0,0,2.27-3.44,21.89,21.89,0,0,0,1.32-2.91c-0.08-.62-0.19-1.3-0.3-2s-0.26-1.64-.38-2.53a11.18,11.18,0,0,0-.81-2.91v0.12a31.55,31.55,0,0,1-.78,5.36m-0.56-2a6.09,6.09,0,0,0-.71-1.75c0.31,1,.61,1.91.88,2.82q-0.06-.54-0.17-1.08m-1.11-2.94a7.82,7.82,0,0,1,1.43,2.87c0.06,0.31.12,0.62,0.15,0.94a31.58,31.58,0,0,0,.54-4.24q0-.38,0-0.74a15.5,15.5,0,0,0-3-4,18,18,0,0,1,.25,2.14,11.93,11.93,0,0,1,0,1.38l0.56,1.63m-0.63-.8,0,0,0-.07v0Zm-7.57-4.79a4,4,0,0,0-.74-0.08c0.51,0.34,1,.71,1.53,1.11q-0.37-.51-0.78-1m-1-.4a3.77,3.77,0,0,1,.65,0l-0.5-.59-0.15.57m-5.47,10.12c-0.07.38-.12,0.76-0.15,1.15a14.69,14.69,0,0,0,1,1.16c-0.07-.47-0.15-1-0.23-1.44q-0.35-.44-0.66-0.87m2-6.06c0.34-.61.68-1.19,1-1.75s0.52-.9.74-1.29a1.91,1.91,0,0,1,.89-0.83l0.16-.06c-0.37-.22-0.73-0.42-1.08-0.6a32.93,32.93,0,0,0-1.71,4.53m-2.44,6.83q0.07-.59.18-1.15a9.65,9.65,0,0,1-1.16-2.3c0,0.6,0,1.21.05,1.81v0.22a13,13,0,0,0,.92,1.41m0.56,4.09a4.15,4.15,0,0,0,1.34,2.23c-0.06-1-.2-2.2-0.39-3.58,0-.22-0.08-0.45-0.11-0.68a15.36,15.36,0,0,1-1.13-1.21,11.7,11.7,0,0,0,.3,3.24m1.35,2.66a4.47,4.47,0,0,1-1.67-2.59,12.08,12.08,0,0,1-.29-3.69,13.77,13.77,0,0,1-.85-1.22c0,0.82,0,1.63,0,2.41q0,0.39,0,.78a8.52,8.52,0,0,0,3.16,5.92,3.75,3.75,0,0,1-.43-1.62m0.71,0.09h0c-0.17-.44-0.33-0.89-0.48-1.36,0,0.4.06,0.77,0.07,1.1l0.4,0.26m0.2,0.48-0.36-.2-0.21-.13a3.18,3.18,0,0,0,.44,1.34,2.6,2.6,0,0,0,1.21,1,12.75,12.75,0,0,1-1.08-2m5.19,0.79-0.3,0,0.26,0.06Zm1.53-.21c-0.37.07-.75,0.13-1.14,0.17l-0.08.15a2.43,2.43,0,0,0,1.22-.32m4.46-2a7.25,7.25,0,0,1-3.41,1.8l0.85,0.45,0.66-.38a6.72,6.72,0,0,0,1.9-1.87m-7.07-20a6.13,6.13,0,0,1,2,.26,3.62,3.62,0,0,1,2.52,2.55c0.22,0.76.46,1.6,0.73,2.49l0.36,1.2a18.83,18.83,0,0,1,1.63,1.61c0-.15,0-0.3,0-0.45-0.54-1.53-1.07-3-1.51-4.18l-0.46-1.25L225,285.1c-0.55-.45-1.09-0.88-1.58-1.31l0,0a11.56,11.56,0,0,0-1.83-.34l-0.09.1a2.6,2.6,0,0,0-.33.5m-1.09.1c0.24,0,.48-0.07.72-0.08a4,4,0,0,1,.2-0.39c-0.31.15-.62,0.3-0.92,0.47m-0.9.52h0l-0.23.14,0.1,0.1,0.15-.24m-0.57-.17,0.42-.13,0.56-.33c0.16-.23.32-0.45,0.49-0.65l0,0a16.78,16.78,0,0,0-1.85.08l-0.86.11a8.63,8.63,0,0,1,1.2,1M216.23,286a5,5,0,0,0-2.16,2.93l0,0.29a11.08,11.08,0,0,1,1.6-2.21c0.29-.31.59-0.61,0.91-0.9l-0.39-.11m0.73-.46-0.37.22,0.32,0.1q0.49-.41,1-0.79a9,9,0,0,0-1,.47m-0.8.12c0.2-.14.42-0.27,0.64-0.4a9.72,9.72,0,0,1,1.42-.65,7.36,7.36,0,0,0-1.34-1,10.08,10.08,0,0,0-1.48.4c-1,.34-1.59.79-1.65,1.31a7.83,7.83,0,0,0,0,1.41,2,2,0,0,1,2.35-1.07h0Zm-2.2,2.52a5.66,5.66,0,0,1,1.83-2.25,1.87,1.87,0,0,0-1.93,1.41c0,0.26.07,0.55,0.11,0.85m2.31,11.23c0.19,0.51.39,1,.59,1.5l0.68,0.51a9.86,9.86,0,0,1-.31-1c-0.33-.33-0.65-0.66-1-1M214,290.74a20.52,20.52,0,0,0,.6,3.56c-0.21-1.23-.42-2.44-0.6-3.56m-0.35-.6c0-.24,0-0.48,0-0.72a3.81,3.81,0,0,1,.06-0.5q-0.07-.45-0.12-0.87c0,0.15-.08.3-0.11,0.46a18.27,18.27,0,0,0-.3,3.06,9.33,9.33,0,0,1,.46-1.43m1,5.64a24.35,24.35,0,0,1-1-4.81,8.92,8.92,0,0,0-.41,2.12,6.11,6.11,0,0,0,1.17,3.5c0.06-.27.14-0.54,0.22-0.8m0.4,1.28-0.22-.7q-0.08.3-.14,0.6c0.15,0.21.3,0.43,0.46,0.64l-0.09-.54m5.53,9.26a3,3,0,0,1-1.05-.09,8.6,8.6,0,0,1-2.11-.54,11.24,11.24,0,0,0,1.16,2,5.72,5.72,0,0,0,1.65.16,8.93,8.93,0,0,0,.93-0.08,8.33,8.33,0,0,0,.79-1.12,2.92,2.92,0,0,1-.44-0.14,3.15,3.15,0,0,1-.41-0.2h-0.52m1.84-.5-0.36.14,0.3,0Zm0.94-.46-0.47.24-0.15.29c0.39,0,.78-0.12,1.16-0.19l-0.54-.34m1.16-1.11a16.39,16.39,0,0,0,1.67-1.35,15.15,15.15,0,0,0,1.19-4.5,5.18,5.18,0,0,0,0-1,16.71,16.71,0,0,1-3.12,5.55,2.06,2.06,0,0,1-.36.3c-0.21.54-.44,1.09-0.68,1.61l0.14,0.09c0.39-.22.77-0.47,1.15-0.73m1.3-.59c-0.36.3-.73,0.59-1.11,0.86s-0.68.46-1,.67l0.67,0.41h0a6.39,6.39,0,0,0,1.13-1.37q0.17-.27.33-0.56m2.74-3.18a9.86,9.86,0,0,1-2.1,2.61,10.84,10.84,0,0,1-.69,1.3,7.49,7.49,0,0,1-.77,1,5.61,5.61,0,0,0,3.14-1.91,5.53,5.53,0,0,0,.42-3m-0.1-.62,0-.14a32.26,32.26,0,0,0-.66-3.65c-0.07.23-.14,0.45-0.21,0.67a5.78,5.78,0,0,1,.08,1.68,15.8,15.8,0,0,1-.93,3.9,6.66,6.66,0,0,0,1.68-2.46m-0.56-5.31q-0.12-.29-0.26-0.59l0.21,0.81,0.05-.23m0.29,0.75-0.08-.22-0.09.37c0.27,1.12.5,2.21,0.66,3.23a8.09,8.09,0,0,0-.48-3.37m0.05-.77c0.09,0.23.18,0.45,0.26,0.67a7.87,7.87,0,0,1,.32,4.58,7.39,7.39,0,0,1-.3,3.7,14.52,14.52,0,0,0,1.11-2.27,22.59,22.59,0,0,0,.86-2.75c-0.42-1.56-1-3.32-1.56-5l-0.4-.51c-0.07.53-.17,1.07-0.3,1.62m-1-2c0.29,0.51.55,1,.77,1.47,0.1-.49.18-1,0.24-1.45a17.87,17.87,0,0,0-1.41-1.45l0.41,1.43m-1.67-2.49q0.57,0.76,1,1.49l-0.24-.83-0.33-.28-0.47-.38m-1.73-1.56a8.29,8.29,0,0,0-3.48-2.08q0.43,0.49.82,1a7.38,7.38,0,0,1,1.26.41,12.05,12.05,0,0,1,1.4.7m0.82,0.91,0,0a13.4,13.4,0,0,0-2.32-1.28,7.84,7.84,0,0,0-.8-0.29c0.43,0.56.83,1.12,1.2,1.67a21.88,21.88,0,0,1,1.74,1.7,13.06,13.06,0,0,1,3,5c0.07-.23.14-0.47,0.2-0.7-0.22-.91-0.47-1.84-0.73-2.76a28.72,28.72,0,0,0-2.27-3.27m-4.3-3.33a8.91,8.91,0,0,1,4.5,3.06c0.45,0.31.9,0.65,1.34,1l-0.22-.73c-0.26-.89-0.51-1.73-0.73-2.49A3.31,3.31,0,0,0,223,284.6a5.86,5.86,0,0,0-2-.24,13.46,13.46,0,0,0-.56,1.71m-2.16.18-0.24,0,0.18,0.08Zm1.61,0a5,5,0,0,0-1.23-.08l-0.16.32c0.42,0.21.86,0.46,1.3,0.73l0.21-.84ZM220,286h0.07a14.59,14.59,0,0,1,.51-1.61l-0.58.07-0.43.08c-0.13.19-.25,0.39-0.37,0.59,0.28,0.28.55,0.57,0.81,0.85m-1.22-.11a5.34,5.34,0,0,1,.71,0l-0.46-.48-0.25.45m-1.26.23,0.19-.06a4,4,0,0,1,.7-0.14q0.19-.37.39-0.71l-0.2-.2a16.06,16.06,0,0,0-1.36,1l0.29,0.11m-1.9,4.71c0.08,0.7.13,1.4,0.17,2.09l0.09-.19a34.67,34.67,0,0,1,2.14-6l-0.5-.23a2.84,2.84,0,0,0-1.38,1.15,4.91,4.91,0,0,0-.51,3.22m-0.13,2.74c0-.88-0.08-1.79-0.19-2.7a5.22,5.22,0,0,1,.56-3.43,3.14,3.14,0,0,1,1.24-1.14l-0.15-.05a13.29,13.29,0,0,0-1,1,10.59,10.59,0,0,0-1.76,2.54c0.21,1.37.48,2.92,0.75,4.52l0.08,0.47c0.15-.41.32-0.81,0.49-1.21m0,0.92v-0.14c-0.15.36-.28,0.72-0.4,1.09l0.22,1.3a17.73,17.73,0,0,1,.19-2.25m3.35,7.81,0.42,0c-0.55-.47-1.1-1-1.62-1.46,0.09,0.3.2,0.59,0.32,0.89,0.29,0.19.59,0.37,0.88,0.53m-2.9-4.21c0,0.21,0,.42.07,0.63,0.33,0.38.68,0.76,1,1.13a10,10,0,0,1-.16-1.68,16.8,16.8,0,0,1,1.56-6.69,27.21,27.21,0,0,0,1.17-3.78l-0.27.1a1.59,1.59,0,0,0-.74.69c-0.24.44-.49,0.86-0.74,1.29-0.56,1-1.15,2-1.7,3.08l-0.11.46c-0.09.39-.17,0.79-0.23,1.2,0,0.25,0,.49,0,0.74,0,1,0,2,.11,2.83m0.07,2.17a7.7,7.7,0,0,1-.28-1.2v0q0,0.35.07,0.69l0.06,0.4,0.16,0.15m0.7,1.31a3.4,3.4,0,0,1-.42-0.64L216,300.6l0,0.25,0.09,0.46a20.45,20.45,0,0,0,1.17,3.94,7.22,7.22,0,0,0,1.44.49,2.42,2.42,0,0,1-.55-0.83l-0.44-1c-0.3-.72-0.63-1.5-1-2.32m1.18,0.83a3,3,0,0,1-.62-0.33c0.24,0.59.48,1.16,0.7,1.69l0.44,1a1.9,1.9,0,0,0,.8,1,1.79,1.79,0,0,0,.37.16l0.71,0.07h0.3a6.38,6.38,0,0,1-1-1,13,13,0,0,1-1.7-2.62m0.88,0.23-0.45-.09a12.75,12.75,0,0,0,1.52,2.27,5.51,5.51,0,0,0,1.21,1.13l0.53-.14a8,8,0,0,0,1.06-.42l0.17-.35c-0.53-.35-1.07-0.74-1.62-1.15l-0.64-.49a9.65,9.65,0,0,1-1.11-.43l-0.67-.33m0.9,0.06h-0.05l0.12,0.05Zm5.11-1.83a4.74,4.74,0,0,0,2-2.87h0.09c0.13-.33.25-0.66,0.37-1l0.08-.24a12,12,0,0,0-3.06-5.33c-0.27-.3-0.56-0.6-0.85-0.88q0.45,0.78.81,1.53c1.25,2.6,1.65,5,1.22,6.67-0.14.56-.35,1.3-0.62,2.12m-4.45,1.48a9.12,9.12,0,0,0,4-1.19c0.33-1,.58-1.85.74-2.49,0.41-1.64,0-3.91-1.19-6.45a21.58,21.58,0,0,0-1.41-2.49,22.49,22.49,0,0,0-2.54-1.93,27.65,27.65,0,0,1-1.18,3.82,16.49,16.49,0,0,0-1.54,6.56,9.69,9.69,0,0,0,.26,2.1c0.73,0.72,1.51,1.43,2.31,2.09l0.54,0m3.86-.72a9.76,9.76,0,0,1-3.83,1h-0.19l0.54,0.43a4.89,4.89,0,0,0,2.19.24,2.22,2.22,0,0,0,.75-0.26c0.19-.5.38-1,0.54-1.48m1.42-1a6.1,6.1,0,0,1-1,.78c-0.14.42-.29,0.85-0.46,1.29a11.81,11.81,0,0,0,1.45-2.07" transform="translate(-206.74 -276.89)" style="fill:#fff"/>
    </symbol>
    <symbol id="icon_11" viewBox="0 0 25.93 29.64">
      <path d="M384.61,328.46a1.43,1.43,0,0,1-1.43,1.43h-5.72V327h5.72a1.43,1.43,0,0,1,1.43,1.43m9.73-2.19a7.93,7.93,0,0,0-7.91-7.91h-18V327h6.83v12.24h-6.83V348h15.43v-8.73h-6.37v-5.09h9a7.93,7.93,0,0,0,7.91-7.91" transform="translate(-368.41 -318.36)" style="fill:#fff"/>
    </symbol>
    <symbol id="icon_12" viewBox="0 0 28.35 28.8">
      <path d="M70.16,369.49a0.56,0.56,0,0,0,.83.17c0.52-.35,5.23-4,5.8-5.19s0-3.36-.83-4.66-2.79-3-7.67-1.92-12,5-14.21,8.5-1.79,6.54-.44,7.41S71.82,374,71.82,374a0.82,0.82,0,0,1-.13.48c-3,7.57-17.6,8.87-21.32,1.21-1-2-.76-2.93-1.34-2a4,4,0,0,0-.35,2c0.47,9.74,15.09,13.56,23.1,8.07,4.25-2.91,4.4-4.62,4.36-5.75s0-5.1-.78-6.23-1.7-1.26-3.83-.61a88.77,88.77,0,0,1-12.25,2.57c-2.92.22-6.93-.31-5.36-1.53a86.21,86.21,0,0,1,13.64-8.19c4.88-2.09,2.62.35,2.18,1.26s-0.35,3.49.44,4.14" transform="translate(-48.67 -357.55)" style="fill:#fff"/>
    </symbol>
    <symbol id="icon_2" viewBox="0 0 25.03 26.61">
      <path d="M497.32,13.57c-0.48.48-2.87,3.51,1.49,5.91,2.13,1.17,5.19,2.08,7.76,3.63,4.48,2.69,6.54,8.2,3.54,12.68-2.42,3.62-7.55,4.31-9.65,3.86,1.7-2.18,1.86-5.32-3.62-6.71-9.18-2.33-11-7.59-10.17-11.73,1.06-5.39,5.53-7.47,10.64-7.64m-6.25,18.63a3.91,3.91,0,1,1-3.91,3.91,3.91,3.91,0,0,1,3.91-3.91m15.12-18.79a3.91,3.91,0,1,1-3.91,3.91,3.91,3.91,0,0,1,3.91-3.91" transform="translate(-486.51 -13.41)" style="fill:#fff"/>
    </symbol>
    <symbol id="icon_3" viewBox="0 0 18.96 27.34">
      <path d="M31.35,57.76a6.8,6.8,0,0,1-6.78,6.78H23.2V61.83h1.38a4.07,4.07,0,0,0,0-8.15h-4v5.51H17.68V51h6.89a6.8,6.8,0,0,1,6.78,6.78m-10.77,15H17.68V67.31h2.91v5.45ZM23.2,56.32h1.33a1.44,1.44,0,0,1,0,2.87H23.2V56.32ZM34,57.76a9.59,9.59,0,0,0-9.55-9.55l-9.41,0V61.83h5.52v2.71H15.06v11H23.2V67.31h1.26A9.58,9.58,0,0,0,34,57.76" transform="translate(-15.06 -48.19)" style="fill:#fff"/>
    </symbol>
    <symbol id="icon_4" viewBox="0 0 22.04 29.43">
      <path d="M146.43,57.45l-2.25.75,0.31-.93c1.11-3.38-3.83-3.19-4.91.23l-0.75,2.39,2.25-.75-3.34,10.59,2.43-.81-0.62,2c-1.17,3.71,3.66,3,4.86-.64l0.9-2.75-2.42.81Zm-12,4-2.25.75,0.91-2.83c4.07-12.68,19.41-12.21,17.65-3.5l2.27-.76c0,0.22-.1.45-0.18,0.69l-3,9.85,2.43-.81-0.82,2.69c-4.66,15.32-20.25,13.87-18,3.92L131,72.3c0.05-.2.11-0.41,0.18-0.62Z" transform="translate(-130.97 -49.58)" style="fill:#fff"/>
    </symbol>
    <symbol id="icon_5" viewBox="0 0 31.22 41.59">
      <path d="M640.59,49.47c1.15-3.09,4.72-3.54,7.42-2.42a13.05,13.05,0,0,0,3.91,1.28,41,41,0,0,1-5.23-.69c-2.26-.23-4.49.08-6.1,1.83" transform="translate(-640.45 -43.54)" style="fill:#fff"/><path d="M663.83,59.47c0.76-.35,3.39-1.57,4.4-2.14a8.38,8.38,0,0,0,3.07-2.72c0.41-.9.83,1.41-0.83,2.53A44.64,44.64,0,0,1,663.75,60a21.83,21.83,0,0,1-3.81,9.79c-1.19,1.67-2.54,2.27-2,1.59s2.62-2.86,4-9.82-0.2-9.6-1.59-9.74C652.55,51,649.85,77.95,652,82.56c0.41,0.87,1,1.87.25,1.33a6.4,6.4,0,0,1-2.33-4.54c-0.82-6.79,1.76-20.27,3.48-26.62,1.43-5.27,2.4-6.63,3.73-8.3s2.13-.69,1.49.69A10.86,10.86,0,0,1,655.87,48c-0.17-.06-1.21,2.62-2.46,9.68a17.1,17.1,0,0,1,4.31-5.83c3-2.27,7-.4,6.28,6.2q-0.07.71-.17,1.38" transform="translate(-640.45 -43.54)" style="fill:#fff"/><path d="M659.75,62a32.1,32.1,0,0,1-2.18,7.6c-1.42,2.79-3.7,3.33-4,.59-0.55-4.52,4.35-7.36,6.21-8.19M660.94,53a1.59,1.59,0,0,0-2.24-.6,5.19,5.19,0,0,1,1.16,2.14,34.92,34.92,0,0,1,0,6.82,14,14,0,0,0-6.49,5.23c-2.3,3.77.16,6.5,2.42,5.77s4.39-5.95,5.13-10,0.76-8.11,0-9.33" transform="translate(-640.45 -43.54)" style="fill:#fff"/><path d="M656,44.82s0.27-.5-0.23,0A17.14,17.14,0,0,0,653,49a20.76,20.76,0,0,1-4.3-.53,18.18,18.18,0,0,0-4-.24c-3.71.26-5.7,3.17-2.92,5.77-0.38-1.1-.41-3.68,2-4.47,1.68-.56,6.79-0.19,7.74-0.18a5.29,5.29,0,0,0,1.41-.1c-4.41,9.11-3.51,21.87-7.7,31.6A8.31,8.31,0,0,1,641.9,85c-0.24.13,1.07,0.9,3.52-2.28,5-6.46,4.2-23.84,8.82-34.5A20.07,20.07,0,0,1,656,44.82" transform="translate(-640.45 -43.54)" style="fill:#fff"/>
    </symbol>
    <symbol id="icon_6" viewBox="0 0 28 28">
      <path d="M326.54,103.12a12.75,12.75,0,1,0,2.83-9.34,12.71,12.71,0,0,0-2.83,9.34m3.81,9.57a14,14,0,1,1,10.26,3.11,14,14,0,0,1-10.26-3.11" transform="translate(-325.23 -87.87)" style="fill:#fff"/><path d="M329.47,99.29a18.33,18.33,0,0,0-.7,8.09,23.45,23.45,0,0,0,7.86,4.15,18.39,18.39,0,0,0,8.1.71,23.37,23.37,0,0,0,4.14-7.85,18.31,18.31,0,0,0,.7-8.09,23.42,23.42,0,0,0-7.86-4.15,18.39,18.39,0,0,0-8.1-.71,23.37,23.37,0,0,0-4.14,7.85m-1.89,8.55a19.4,19.4,0,0,1,.7-8.91,24.62,24.62,0,0,1,4.52-8.47l0.14-.18,0.22,0a19.48,19.48,0,0,1,8.92.7,24.7,24.7,0,0,1,8.47,4.53l0.18,0.14,0,0.22a19.38,19.38,0,0,1-.69,8.9,24.63,24.63,0,0,1-4.52,8.47l-0.14.18-0.23,0a19.46,19.46,0,0,1-8.92-.7,24.69,24.69,0,0,1-8.47-4.53l-0.18-.15Z" transform="translate(-325.23 -87.87)" style="fill:#fff"/><path d="M338.19,92.45l-8.43,10.28,10.31,8.46,8.43-10.28Zm-9.8,10,9.23-11.24,0.4-.48,0.48,0.4,11.28,9.25,0.48,0.4-0.4.48-9.23,11.25-0.4.48-0.48-.4-11.27-9.25-0.48-.4Z" transform="translate(-325.23 -87.87)" style="fill:#fff"/><path d="M342.74,97.48L335.56,97,335,106.1l9.34-1.06ZM335,95.69l8.27,0.58,0.47,0,0.1,0.46,1.9,8.69,0.15,0.68-0.69.08-10.77,1.22-0.74.08,0-.74,0.6-10.5,0-.63Z" transform="translate(-325.23 -87.87)" style="fill:#fff"/><path d="M341.55,99.07l-5.13,2.19,4.46,3.35Zm-6.62,1.46,7.13-3,1-.42-0.13,1.08L342,105.83l-1,.42-6.19-4.65Z" transform="translate(-325.23 -87.87)" style="fill:#fff"/>
    </symbol>
    <symbol id="icon_7" viewBox="0 0 22.76 29.95">
      <path d="M182.19,195.95a10.49,10.49,0,0,1-4.91-1.21c-1.62-.86-3.6-2.7-5.18-3.71-0.55-.35-1.35.47-1.64,0.28-0.12-.08-0.25-0.1-0.15-0.21l5.15-5.17c0.17-.17.32-0.34,0.46-0.51h15.28a0.2,0.2,0,1,0,0-.41h-15v0a10.22,10.22,0,0,1,10-17.82c1.57,0.83,3.49,2.61,5,3.6,0.53,0.34,1.31-.45,1.59-0.27,0.11,0.07.24,0.1,0.14,0.2l-5,5-0.21.22H172.65a0.2,0.2,0,1,0,0,.41h14.89a10.54,10.54,0,0,1-5.35,19.61" transform="translate(-170.27 -166)" style="fill:#fff"/>
    </symbol>
    <symbol id="icon_8" viewBox="0 0 24.95 27.94">
      <path d="M460.12,208.45l-3.83,19.84a1.65,1.65,0,0,1-1.54,1.29,1,1,0,0,1-1-1.29l3.83-19.84a1.65,1.65,0,0,1,1.54-1.29,1,1,0,0,1,1,1.29m9.37,9c-0.35-6.73-4.59-13.25-12.45-13.31s-12.11,6.59-12.45,13.31C444.22,224.56,448.26,232,457,232c8.78-.09,12.82-7.47,12.45-14.63" transform="translate(-444.57 -204.09)" style="fill:#fff"/>
    </symbol>
    <symbol id="icon_9" viewBox="0 0 11.83 33.52">
      <path d="M580.78,248.63H581v-3.17a3.82,3.82,0,0,0-7.64,0v2.65c0,2.6,2.16,5,3.73,6.85s3.67,4.21,3.67,6.7v5.49a3.59,3.59,0,0,1-7.17,0V262.3h-0.23v4.85a3.82,3.82,0,0,0,7.64,0v-5.49c0-2.6-2.16-5-3.73-6.85s-3.67-4.21-3.67-6.7v-2.65a3.59,3.59,0,0,1,7.17,0v3.17Zm-2.1,2.1v-5.27a1.49,1.49,0,0,0-3,0v2.65c0,1.59,1.59,3.47,3.17,5.35,2.12,2.5,4.23,5,4.23,8.2v5.49a5.92,5.92,0,0,1-11.83,0V260.2h4.43v6.95a1.49,1.49,0,0,0,3,0v-5.49c0-1.59-1.59-3.47-3.18-5.35-2.11-2.5-4.23-5-4.23-8.2v-2.65a5.92,5.92,0,0,1,11.83,0v5.27h-4.43Z" transform="translate(-571.28 -239.54)" style="fill:#fff"/>
    </symbol>
    <symbol id="icon_o" viewBox="0 0 12.27 12.27">
      <path d="M106.44,30.19a6.12,6.12,0,1,1,1.8-4.33,6.12,6.12,0,0,1-1.8,4.33m-4.33-.86a3.49,3.49,0,1,0-2.45-1,3.46,3.46,0,0,0,2.45,1" transform="translate(-95.97 -19.72)" style="fill:#fff"/>
    </symbol>
    <symbol id="icon_p" viewBox="0 0 7.84 12.04">
      <path d="M63.68,22.5v3.4h0.81a1.7,1.7,0,0,0,0-3.4H63.68Zm0,8v1.33H61v-12h3.47a4.37,4.37,0,0,1,0,8.73H63.68v2Z" transform="translate(-61.01 -19.83)" style="fill:#fff"/>
    </symbol>
    <symbol id="icon_s" viewBox="0 0 9.19 12.13">
      <path d="M179,30.7L177.84,30l1.38-2.27,1.13,0.69a6.71,6.71,0,0,0,1.47.7,3.12,3.12,0,0,0,1.25.15,1.69,1.69,0,0,0,.89-0.35,1,1,0,0,0,.38-0.56,0.86,0.86,0,0,0,0-.53,0.83,0.83,0,0,0-.33-0.28,8.24,8.24,0,0,0-1.19-.5c-1.36-.5-2.75-1-3.34-2.62a3.33,3.33,0,0,1-.19-1.46,3.44,3.44,0,0,1,.45-1.42,3.38,3.38,0,0,1,2.53-1.69,5.5,5.5,0,0,1,3.14.58L186.6,21l-1.18,2.38-1.19-.59a2.83,2.83,0,0,0-1.58-.33,0.81,0.81,0,0,0-.61.39,0.79,0.79,0,0,0-.1.32,0.76,0.76,0,0,0,0,.32,3.1,3.1,0,0,0,1.77,1,9.76,9.76,0,0,1,1.61.71,3.17,3.17,0,0,1,1.59,3.64,3.68,3.68,0,0,1-1.3,2.09,4.37,4.37,0,0,1-2.28.92,5.66,5.66,0,0,1-2.32-.26,9.31,9.31,0,0,1-2.06-1" transform="translate(-177.84 -19.83)" style="fill:#fff"/>
    </symbol></svg>